<mxfile host="app.diagrams.net" agent="Mozilla/5.0 (Windows NT 10.0; Win64; x64) AppleWebKit/537.36 (KHTML, like Gecko) Chrome/137.0.0.0 Safari/537.36" version="27.1.6">
  <diagram name="Página-1" id="esPIXZYzyLC4NXMFk4m4">
    <mxGraphModel grid="1" page="1" gridSize="10" guides="1" tooltips="1" connect="1" arrows="1" fold="1" pageScale="1" pageWidth="827" pageHeight="1169" math="0" shadow="0">
      <root>
        <mxCell id="0" />
        <mxCell id="1" parent="0" />
        <mxCell id="0mmfi3EhIWckLAOdmHVJ-1" value="Administrador" style="html=1;whiteSpace=wrap;" vertex="1" parent="1">
          <mxGeometry x="40" y="50" width="110" height="50" as="geometry" />
        </mxCell>
        <mxCell id="0mmfi3EhIWckLAOdmHVJ-2" value="Sistema&lt;span style=&quot;color: rgba(0, 0, 0, 0); font-family: monospace; font-size: 0px; text-align: start; text-wrap-mode: nowrap;&quot;&gt;%3CmxGraphModel%3E%3Croot%3E%3CmxCell%20id%3D%220%22%2F%3E%3CmxCell%20id%3D%221%22%20parent%3D%220%22%2F%3E%3CmxCell%20id%3D%222%22%20value%3D%22Usuario%22%20style%3D%22html%3D1%3BwhiteSpace%3Dwrap%3B%22%20vertex%3D%221%22%20parent%3D%221%22%3E%3CmxGeometry%20x%3D%2270%22%20y%3D%2240%22%20width%3D%22110%22%20height%3D%2250%22%20as%3D%22geometry%22%2F%3E%3C%2FmxCell%3E%3C%2Froot%3E%3C%2FmxGraphModel%3E&lt;/span&gt;" style="html=1;whiteSpace=wrap;" vertex="1" parent="1">
          <mxGeometry x="240" y="50" width="110" height="50" as="geometry" />
        </mxCell>
        <mxCell id="0mmfi3EhIWckLAOdmHVJ-3" value="Base de datos" style="html=1;whiteSpace=wrap;" vertex="1" parent="1">
          <mxGeometry x="440" y="50" width="110" height="50" as="geometry" />
        </mxCell>
        <mxCell id="0mmfi3EhIWckLAOdmHVJ-4" value="Administrador" style="html=1;whiteSpace=wrap;" vertex="1" parent="1">
          <mxGeometry x="40" y="780" width="110" height="50" as="geometry" />
        </mxCell>
        <mxCell id="0mmfi3EhIWckLAOdmHVJ-5" value="Sistema&lt;span style=&quot;color: rgba(0, 0, 0, 0); font-family: monospace; font-size: 0px; text-align: start; text-wrap-mode: nowrap;&quot;&gt;%3CmxGraphModel%3E%3Croot%3E%3CmxCell%20id%3D%220%22%2F%3E%3CmxCell%20id%3D%221%22%20parent%3D%220%22%2F%3E%3CmxCell%20id%3D%222%22%20value%3D%22Usuario%22%20style%3D%22html%3D1%3BwhiteSpace%3Dwrap%3B%22%20vertex%3D%221%22%20parent%3D%221%22%3E%3CmxGeometry%20x%3D%2270%22%20y%3D%2240%22%20width%3D%22110%22%20height%3D%2250%22%20as%3D%22geometry%22%2F%3E%3C%2FmxCell%3E%3C%2Froot%3E%3C%2FmxGraphModel%3E&lt;/span&gt;" style="html=1;whiteSpace=wrap;" vertex="1" parent="1">
          <mxGeometry x="240" y="780" width="110" height="50" as="geometry" />
        </mxCell>
        <mxCell id="0mmfi3EhIWckLAOdmHVJ-6" value="Base de datos" style="html=1;whiteSpace=wrap;" vertex="1" parent="1">
          <mxGeometry x="436.25" y="780" width="110" height="50" as="geometry" />
        </mxCell>
        <mxCell id="0mmfi3EhIWckLAOdmHVJ-7" value="" style="endArrow=none;dashed=1;html=1;rounded=0;entryX=0.5;entryY=1;entryDx=0;entryDy=0;exitX=0.5;exitY=0;exitDx=0;exitDy=0;" edge="1" parent="1" source="0mmfi3EhIWckLAOdmHVJ-9" target="0mmfi3EhIWckLAOdmHVJ-2">
          <mxGeometry width="50" height="50" relative="1" as="geometry">
            <mxPoint x="270" y="330" as="sourcePoint" />
            <mxPoint x="320" y="280" as="targetPoint" />
          </mxGeometry>
        </mxCell>
        <mxCell id="0mmfi3EhIWckLAOdmHVJ-8" value="" style="endArrow=none;dashed=1;html=1;rounded=0;entryX=0.5;entryY=1;entryDx=0;entryDy=0;" edge="1" parent="1" source="0mmfi3EhIWckLAOdmHVJ-24" target="0mmfi3EhIWckLAOdmHVJ-9">
          <mxGeometry width="50" height="50" relative="1" as="geometry">
            <mxPoint x="295.5" y="360" as="sourcePoint" />
            <mxPoint x="295" y="100" as="targetPoint" />
          </mxGeometry>
        </mxCell>
        <mxCell id="0mmfi3EhIWckLAOdmHVJ-9" value="" style="html=1;points=[[0,0,0,0,5],[0,1,0,0,-5],[1,0,0,0,5],[1,1,0,0,-5]];perimeter=orthogonalPerimeter;outlineConnect=0;targetShapes=umlLifeline;portConstraint=eastwest;newEdgeStyle={&quot;curved&quot;:0,&quot;rounded&quot;:0};" vertex="1" parent="1">
          <mxGeometry x="290" y="140" width="10" height="30" as="geometry" />
        </mxCell>
        <mxCell id="0mmfi3EhIWckLAOdmHVJ-10" value="" style="endArrow=classic;html=1;rounded=0;entryX=0;entryY=0;entryDx=0;entryDy=5;entryPerimeter=0;" edge="1" parent="1" target="0mmfi3EhIWckLAOdmHVJ-9">
          <mxGeometry width="50" height="50" relative="1" as="geometry">
            <mxPoint x="90" y="145" as="sourcePoint" />
            <mxPoint x="200" y="120" as="targetPoint" />
          </mxGeometry>
        </mxCell>
        <mxCell id="0mmfi3EhIWckLAOdmHVJ-11" value="1. Accede a la galería de eventos" style="text;html=1;align=center;verticalAlign=middle;whiteSpace=wrap;rounded=0;" vertex="1" parent="1">
          <mxGeometry x="90" y="120" width="200" height="20" as="geometry" />
        </mxCell>
        <mxCell id="0mmfi3EhIWckLAOdmHVJ-12" value="2. Consultar imágenes" style="text;html=1;align=center;verticalAlign=middle;whiteSpace=wrap;rounded=0;" vertex="1" parent="1">
          <mxGeometry x="306.25" y="160" width="170" height="20" as="geometry" />
        </mxCell>
        <mxCell id="0mmfi3EhIWckLAOdmHVJ-13" value="" style="endArrow=classic;html=1;rounded=0;entryX=0;entryY=0;entryDx=0;entryDy=5;entryPerimeter=0;" edge="1" parent="1" target="0mmfi3EhIWckLAOdmHVJ-34">
          <mxGeometry width="50" height="50" relative="1" as="geometry">
            <mxPoint x="300" y="185" as="sourcePoint" />
            <mxPoint x="575" y="180" as="targetPoint" />
          </mxGeometry>
        </mxCell>
        <mxCell id="0mmfi3EhIWckLAOdmHVJ-14" value="" style="endArrow=none;dashed=1;html=1;rounded=0;exitX=0.5;exitY=0;exitDx=0;exitDy=0;entryX=0.5;entryY=1;entryDx=0;entryDy=0;" edge="1" parent="1" source="0mmfi3EhIWckLAOdmHVJ-34" target="0mmfi3EhIWckLAOdmHVJ-3">
          <mxGeometry width="50" height="50" relative="1" as="geometry">
            <mxPoint x="495" y="900" as="sourcePoint" />
            <mxPoint x="495" y="490" as="targetPoint" />
          </mxGeometry>
        </mxCell>
        <mxCell id="0mmfi3EhIWckLAOdmHVJ-15" value="" style="endArrow=none;dashed=1;html=1;rounded=0;exitX=0.449;exitY=-0.016;exitDx=0;exitDy=0;exitPerimeter=0;entryX=0.373;entryY=1.02;entryDx=0;entryDy=0;entryPerimeter=0;" edge="1" parent="1" source="0mmfi3EhIWckLAOdmHVJ-25" target="0mmfi3EhIWckLAOdmHVJ-1">
          <mxGeometry width="50" height="50" relative="1" as="geometry">
            <mxPoint x="84" y="899" as="sourcePoint" />
            <mxPoint x="82.33000000000004" y="210.51" as="targetPoint" />
            <Array as="points" />
          </mxGeometry>
        </mxCell>
        <mxCell id="0mmfi3EhIWckLAOdmHVJ-16" value="7. Notificación de error: Imagen inválida" style="text;html=1;align=center;verticalAlign=middle;whiteSpace=wrap;rounded=0;" vertex="1" parent="1">
          <mxGeometry x="95.25" y="480" width="190" height="20" as="geometry" />
        </mxCell>
        <mxCell id="0mmfi3EhIWckLAOdmHVJ-17" value="3. Retornar imágenes" style="text;html=1;align=center;verticalAlign=middle;whiteSpace=wrap;rounded=0;" vertex="1" parent="1">
          <mxGeometry x="301.5" y="210" width="170" height="20" as="geometry" />
        </mxCell>
        <mxCell id="0mmfi3EhIWckLAOdmHVJ-18" value="" style="endArrow=classic;html=1;rounded=0;entryX=1;entryY=0;entryDx=0;entryDy=5;entryPerimeter=0;" edge="1" parent="1" target="0mmfi3EhIWckLAOdmHVJ-24">
          <mxGeometry width="50" height="50" relative="1" as="geometry">
            <mxPoint x="490" y="235" as="sourcePoint" />
            <mxPoint x="182.5" y="190" as="targetPoint" />
          </mxGeometry>
        </mxCell>
        <mxCell id="0mmfi3EhIWckLAOdmHVJ-19" value="" style="endArrow=none;dashed=1;html=1;rounded=0;exitX=0.5;exitY=0;exitDx=0;exitDy=0;" edge="1" parent="1" source="0mmfi3EhIWckLAOdmHVJ-45" target="0mmfi3EhIWckLAOdmHVJ-28">
          <mxGeometry width="50" height="50" relative="1" as="geometry">
            <mxPoint x="287.5" y="446" as="sourcePoint" />
            <mxPoint x="300" y="390" as="targetPoint" />
            <Array as="points" />
          </mxGeometry>
        </mxCell>
        <mxCell id="0mmfi3EhIWckLAOdmHVJ-20" value="" style="endArrow=none;dashed=1;html=1;rounded=0;exitX=0.5;exitY=0;exitDx=0;exitDy=0;" edge="1" parent="1" source="0mmfi3EhIWckLAOdmHVJ-6" target="0mmfi3EhIWckLAOdmHVJ-40">
          <mxGeometry width="50" height="50" relative="1" as="geometry">
            <mxPoint x="491.25" y="781" as="sourcePoint" />
            <mxPoint x="491.25" y="666" as="targetPoint" />
          </mxGeometry>
        </mxCell>
        <mxCell id="0mmfi3EhIWckLAOdmHVJ-21" value="9. Confirmación" style="text;html=1;align=center;verticalAlign=middle;whiteSpace=wrap;rounded=0;" vertex="1" parent="1">
          <mxGeometry x="304.75" y="630" width="190" height="20" as="geometry" />
        </mxCell>
        <mxCell id="0mmfi3EhIWckLAOdmHVJ-22" value="" style="endArrow=classic;html=1;rounded=0;entryX=1;entryY=0;entryDx=0;entryDy=5;entryPerimeter=0;" edge="1" parent="1" target="0mmfi3EhIWckLAOdmHVJ-43">
          <mxGeometry width="50" height="50" relative="1" as="geometry">
            <mxPoint x="487.25" y="655" as="sourcePoint" />
            <mxPoint x="573.75" y="560" as="targetPoint" />
          </mxGeometry>
        </mxCell>
        <mxCell id="0mmfi3EhIWckLAOdmHVJ-23" value="" style="endArrow=none;dashed=1;html=1;rounded=0;entryX=0.5;entryY=1;entryDx=0;entryDy=0;" edge="1" parent="1" source="0mmfi3EhIWckLAOdmHVJ-28" target="0mmfi3EhIWckLAOdmHVJ-24">
          <mxGeometry width="50" height="50" relative="1" as="geometry">
            <mxPoint x="295" y="280" as="sourcePoint" />
            <mxPoint x="295" y="170" as="targetPoint" />
          </mxGeometry>
        </mxCell>
        <mxCell id="0mmfi3EhIWckLAOdmHVJ-24" value="" style="html=1;points=[[0,0,0,0,5],[0,1,0,0,-5],[1,0,0,0,5],[1,1,0,0,-5]];perimeter=orthogonalPerimeter;outlineConnect=0;targetShapes=umlLifeline;portConstraint=eastwest;newEdgeStyle={&quot;curved&quot;:0,&quot;rounded&quot;:0};" vertex="1" parent="1">
          <mxGeometry x="291.5" y="230" width="10" height="30" as="geometry" />
        </mxCell>
        <mxCell id="0mmfi3EhIWckLAOdmHVJ-25" value="" style="html=1;points=[[0,0,0,0,5],[0,1,0,0,-5],[1,0,0,0,5],[1,1,0,0,-5]];perimeter=orthogonalPerimeter;outlineConnect=0;targetShapes=umlLifeline;portConstraint=eastwest;newEdgeStyle={&quot;curved&quot;:0,&quot;rounded&quot;:0};" vertex="1" parent="1">
          <mxGeometry x="77.5" y="276" width="10" height="30" as="geometry" />
        </mxCell>
        <mxCell id="0mmfi3EhIWckLAOdmHVJ-26" value="" style="endArrow=classic;html=1;rounded=0;entryX=1;entryY=0;entryDx=0;entryDy=5;entryPerimeter=0;" edge="1" parent="1" target="0mmfi3EhIWckLAOdmHVJ-25">
          <mxGeometry width="50" height="50" relative="1" as="geometry">
            <mxPoint x="290" y="282" as="sourcePoint" />
            <mxPoint x="402" y="252" as="targetPoint" />
          </mxGeometry>
        </mxCell>
        <mxCell id="0mmfi3EhIWckLAOdmHVJ-27" value="4. Mostrar galería" style="text;html=1;align=center;verticalAlign=middle;whiteSpace=wrap;rounded=0;" vertex="1" parent="1">
          <mxGeometry x="105" y="256" width="170" height="20" as="geometry" />
        </mxCell>
        <mxCell id="0mmfi3EhIWckLAOdmHVJ-28" value="" style="html=1;points=[[0,0,0,0,5],[0,1,0,0,-5],[1,0,0,0,5],[1,1,0,0,-5]];perimeter=orthogonalPerimeter;outlineConnect=0;targetShapes=umlLifeline;portConstraint=eastwest;newEdgeStyle={&quot;curved&quot;:0,&quot;rounded&quot;:0};" vertex="1" parent="1">
          <mxGeometry x="290" y="326" width="10" height="30" as="geometry" />
        </mxCell>
        <mxCell id="0mmfi3EhIWckLAOdmHVJ-29" value="" style="endArrow=classic;html=1;rounded=0;entryX=0;entryY=0;entryDx=0;entryDy=5;entryPerimeter=0;" edge="1" parent="1" target="0mmfi3EhIWckLAOdmHVJ-28">
          <mxGeometry width="50" height="50" relative="1" as="geometry">
            <mxPoint x="90" y="330" as="sourcePoint" />
            <mxPoint x="422" y="236" as="targetPoint" />
          </mxGeometry>
        </mxCell>
        <mxCell id="0mmfi3EhIWckLAOdmHVJ-30" value="5. Agregar imagen" style="text;html=1;align=center;verticalAlign=middle;whiteSpace=wrap;rounded=0;" vertex="1" parent="1">
          <mxGeometry x="105" y="306" width="170" height="20" as="geometry" />
        </mxCell>
        <mxCell id="0mmfi3EhIWckLAOdmHVJ-31" value="" style="endArrow=none;dashed=1;html=1;rounded=0;exitX=0.394;exitY=0.013;exitDx=0;exitDy=0;exitPerimeter=0;" edge="1" parent="1" source="0mmfi3EhIWckLAOdmHVJ-4" target="0mmfi3EhIWckLAOdmHVJ-32">
          <mxGeometry width="50" height="50" relative="1" as="geometry">
            <mxPoint x="85" y="785" as="sourcePoint" />
            <mxPoint x="89" y="536" as="targetPoint" />
            <Array as="points" />
          </mxGeometry>
        </mxCell>
        <mxCell id="0mmfi3EhIWckLAOdmHVJ-32" value="&lt;span style=&quot;color: rgb(237, 237, 237); font-family: monospace; font-size: 0px; text-align: start;&quot;&gt;%3CmxGraphModel%3E%3Croot%3E%3CmxCell%20id%3D%220%22%2F%3E%3CmxCell%20id%3D%221%22%20parent%3D%220%22%2F%3E%3CmxCell%20id%3D%222%22%20value%3D%22%22%20style%3D%22html%3D1%3Bpoints%3D%5B%5B0%2C0%2C0%2C0%2C5%5D%2C%5B0%2C1%2C0%2C0%2C-5%5D%2C%5B1%2C0%2C0%2C0%2C5%5D%2C%5B1%2C1%2C0%2C0%2C-5%5D%5D%3Bperimeter%3DorthogonalPerimeter%3BoutlineConnect%3D0%3BtargetShapes%3DumlLifeline%3BportConstraint%3Deastwest%3BnewEdgeStyle%3D%7B%26quot%3Bcurved%26quot%3B%3A0%2C%26quot%3Brounded%26quot%3B%3A0%7D%3B%22%20vertex%3D%221%22%20parent%3D%221%22%3E%3CmxGeometry%20x%3D%2285%22%20y%3D%22280%22%20width%3D%2210%22%20height%3D%2230%22%20as%3D%22geometry%22%2F%3E%3C%2FmxCell%3E%3C%2Froot%3E%3C%2FmxGraphModel%3E&lt;/span&gt;&lt;span style=&quot;color: rgb(237, 237, 237); font-family: monospace; font-size: 0px; text-align: start;&quot;&gt;%3CmxGraphModel%3E%3Croot%3E%3CmxCell%20id%3D%220%22%2F%3E%3CmxCell%20id%3D%221%22%20parent%3D%220%22%2F%3E%3CmxCell%20id%3D%222%22%20value%3D%22%22%20style%3D%22html%3D1%3Bpoints%3D%5B%5B0%2C0%2C0%2C0%2C5%5D%2C%5B0%2C1%2C0%2C0%2C-5%5D%2C%5B1%2C0%2C0%2C0%2C5%5D%2C%5B1%2C1%2C0%2C0%2C-5%5D%5D%3Bperimeter%3DorthogonalPerimeter%3BoutlineConnect%3D0%3BtargetShapes%3DumlLifeline%3BportConstraint%3Deastwest%3BnewEdgeStyle%3D%7B%26quot%3Bcurved%26quot%3B%3A0%2C%26quot%3Brounded%26quot%3B%3A0%7D%3B%22%20vertex%3D%221%22%20parent%3D%221%22%3E%3CmxGeometry%20x%3D%2285%22%20y%3D%22280%22%20width%3D%2210%22%20height%3D%2230%22%20as%3D%22geometry%22%2F%3E%3C%2FmxCell%3E%3C%2Froot%3E%3C%2FmxGraphModel%3E&lt;/span&gt;" style="html=1;points=[[0,0,0,0,5],[0,1,0,0,-5],[1,0,0,0,5],[1,1,0,0,-5]];perimeter=orthogonalPerimeter;outlineConnect=0;targetShapes=umlLifeline;portConstraint=eastwest;newEdgeStyle={&quot;curved&quot;:0,&quot;rounded&quot;:0};" vertex="1" parent="1">
          <mxGeometry x="79" y="510" width="10" height="30" as="geometry" />
        </mxCell>
        <mxCell id="0mmfi3EhIWckLAOdmHVJ-33" value="" style="endArrow=none;dashed=1;html=1;rounded=0;exitX=0.5;exitY=0;exitDx=0;exitDy=0;entryX=0.5;entryY=1;entryDx=0;entryDy=0;" edge="1" parent="1" source="0mmfi3EhIWckLAOdmHVJ-40" target="0mmfi3EhIWckLAOdmHVJ-34">
          <mxGeometry width="50" height="50" relative="1" as="geometry">
            <mxPoint x="491" y="576" as="sourcePoint" />
            <mxPoint x="495" y="100" as="targetPoint" />
          </mxGeometry>
        </mxCell>
        <mxCell id="0mmfi3EhIWckLAOdmHVJ-34" value="" style="html=1;points=[[0,0,0,0,5],[0,1,0,0,-5],[1,0,0,0,5],[1,1,0,0,-5]];perimeter=orthogonalPerimeter;outlineConnect=0;targetShapes=umlLifeline;portConstraint=eastwest;newEdgeStyle={&quot;curved&quot;:0,&quot;rounded&quot;:0};" vertex="1" parent="1">
          <mxGeometry x="487.5" y="180" width="10" height="30" as="geometry" />
        </mxCell>
        <mxCell id="0mmfi3EhIWckLAOdmHVJ-35" value="" style="endArrow=none;dashed=1;html=1;rounded=0;exitX=0.449;exitY=-0.016;exitDx=0;exitDy=0;exitPerimeter=0;" edge="1" parent="1" source="0mmfi3EhIWckLAOdmHVJ-32" target="0mmfi3EhIWckLAOdmHVJ-25">
          <mxGeometry width="50" height="50" relative="1" as="geometry">
            <mxPoint x="84" y="726" as="sourcePoint" />
            <mxPoint x="80" y="385" as="targetPoint" />
            <Array as="points" />
          </mxGeometry>
        </mxCell>
        <mxCell id="0mmfi3EhIWckLAOdmHVJ-36" value="" style="endArrow=classic;html=1;rounded=0;entryX=1;entryY=1;entryDx=0;entryDy=-5;entryPerimeter=0;exitX=1;exitY=0;exitDx=0;exitDy=5;exitPerimeter=0;edgeStyle=orthogonalEdgeStyle;" edge="1" parent="1">
          <mxGeometry width="50" height="50" relative="1" as="geometry">
            <mxPoint x="301.5" y="385" as="sourcePoint" />
            <mxPoint x="301.5" y="405" as="targetPoint" />
            <Array as="points">
              <mxPoint x="340" y="405" />
            </Array>
          </mxGeometry>
        </mxCell>
        <mxCell id="0mmfi3EhIWckLAOdmHVJ-37" value="6. Validar imagen" style="text;html=1;align=center;verticalAlign=middle;whiteSpace=wrap;rounded=0;" vertex="1" parent="1">
          <mxGeometry x="340" y="385" width="110" height="20" as="geometry" />
        </mxCell>
        <mxCell id="0mmfi3EhIWckLAOdmHVJ-38" value="" style="endArrow=none;dashed=1;html=1;rounded=0;exitX=0.443;exitY=-0.04;exitDx=0;exitDy=0;exitPerimeter=0;" edge="1" parent="1" source="0mmfi3EhIWckLAOdmHVJ-43" target="0mmfi3EhIWckLAOdmHVJ-45">
          <mxGeometry width="50" height="50" relative="1" as="geometry">
            <mxPoint x="295" y="676" as="sourcePoint" />
            <mxPoint x="295.93000000000006" y="490" as="targetPoint" />
            <Array as="points" />
          </mxGeometry>
        </mxCell>
        <mxCell id="0mmfi3EhIWckLAOdmHVJ-39" value="[Imagen inválida]" style="text;html=1;align=center;verticalAlign=middle;whiteSpace=wrap;rounded=0;" vertex="1" parent="1">
          <mxGeometry x="210" y="440" width="170" height="20" as="geometry" />
        </mxCell>
        <mxCell id="0mmfi3EhIWckLAOdmHVJ-40" value="" style="html=1;points=[[0,0,0,0,5],[0,1,0,0,-5],[1,0,0,0,5],[1,1,0,0,-5]];perimeter=orthogonalPerimeter;outlineConnect=0;targetShapes=umlLifeline;portConstraint=eastwest;newEdgeStyle={&quot;curved&quot;:0,&quot;rounded&quot;:0};" vertex="1" parent="1">
          <mxGeometry x="484.75" y="590" width="10" height="30" as="geometry" />
        </mxCell>
        <mxCell id="0mmfi3EhIWckLAOdmHVJ-41" value="" style="endArrow=classic;html=1;rounded=0;entryX=0;entryY=0;entryDx=0;entryDy=5;entryPerimeter=0;" edge="1" parent="1" target="0mmfi3EhIWckLAOdmHVJ-40">
          <mxGeometry width="50" height="50" relative="1" as="geometry">
            <mxPoint x="298.5" y="595" as="sourcePoint" />
            <mxPoint x="448.5" y="560" as="targetPoint" />
          </mxGeometry>
        </mxCell>
        <mxCell id="0mmfi3EhIWckLAOdmHVJ-42" value="8. Guardar imagen" style="text;html=1;align=center;verticalAlign=middle;whiteSpace=wrap;rounded=0;" vertex="1" parent="1">
          <mxGeometry x="306" y="570" width="170" height="20" as="geometry" />
        </mxCell>
        <mxCell id="0mmfi3EhIWckLAOdmHVJ-43" value="&lt;span style=&quot;color: rgb(237, 237, 237); font-family: monospace; font-size: 0px; text-align: start;&quot;&gt;%3CmxGraphModel%3E%3Croot%3E%3CmxCell%20id%3D%220%22%2F%3E%3CmxCell%20id%3D%221%22%20parent%3D%220%22%2F%3E%3CmxCell%20id%3D%222%22%20value%3D%22%22%20style%3D%22html%3D1%3Bpoints%3D%5B%5B0%2C0%2C0%2C0%2C5%5D%2C%5B0%2C1%2C0%2C0%2C-5%5D%2C%5B1%2C0%2C0%2C0%2C5%5D%2C%5B1%2C1%2C0%2C0%2C-5%5D%5D%3Bperimeter%3DorthogonalPerimeter%3BoutlineConnect%3D0%3BtargetShapes%3DumlLifeline%3BportConstraint%3Deastwest%3BnewEdgeStyle%3D%7B%26quot%3Bcurved%26quot%3B%3A0%2C%26quot%3Brounded%26quot%3B%3A0%7D%3B%22%20vertex%3D%221%22%20parent%3D%221%22%3E%3CmxGeometry%20x%3D%2285%22%20y%3D%22280%22%20width%3D%2210%22%20height%3D%2230%22%20as%3D%22geometry%22%2F%3E%3C%2FmxCell%3E%3C%2Froot%3E%3C%2FmxGraphModel%3E&lt;/span&gt;&lt;span style=&quot;color: rgb(237, 237, 237); font-family: monospace; font-size: 0px; text-align: start;&quot;&gt;%3CmxGraphModel%3E%3Croot%3E%3CmxCell%20id%3D%220%22%2F%3E%3CmxCell%20id%3D%221%22%20parent%3D%220%22%2F%3E%3CmxCell%20id%3D%222%22%20value%3D%22%22%20style%3D%22html%3D1%3Bpoints%3D%5B%5B0%2C0%2C0%2C0%2C5%5D%2C%5B0%2C1%2C0%2C0%2C-5%5D%2C%5B1%2C0%2C0%2C0%2C5%5D%2C%5B1%2C1%2C0%2C0%2C-5%5D%5D%3Bperimeter%3DorthogonalPerimeter%3BoutlineConnect%3D0%3BtargetShapes%3DumlLifeline%3BportConstraint%3Deastwest%3BnewEdgeStyle%3D%7B%26quot%3Bcurved%26quot%3B%3A0%2C%26quot%3Brounded%26quot%3B%3A0%7D%3B%22%20vertex%3D%221%22%20parent%3D%221%22%3E%3CmxGeometry%20x%3D%2285%22%20y%3D%22280%22%20width%3D%2210%22%20height%3D%2230%22%20as%3D%22geometry%22%2F%3E%3C%2FmxCell%3E%3C%2Froot%3E%3C%2FmxGraphModel%3E&lt;/span&gt;" style="html=1;points=[[0,0,0,0,5],[0,1,0,0,-5],[1,0,0,0,5],[1,1,0,0,-5]];perimeter=orthogonalPerimeter;outlineConnect=0;targetShapes=umlLifeline;portConstraint=eastwest;newEdgeStyle={&quot;curved&quot;:0,&quot;rounded&quot;:0};" vertex="1" parent="1">
          <mxGeometry x="290" y="650" width="10" height="30" as="geometry" />
        </mxCell>
        <mxCell id="0mmfi3EhIWckLAOdmHVJ-44" value="" style="endArrow=open;endSize=12;dashed=1;html=1;rounded=0;fontSize=12;curved=1;entryX=1;entryY=0;entryDx=0;entryDy=5;entryPerimeter=0;" edge="1" parent="1" target="0mmfi3EhIWckLAOdmHVJ-32">
          <mxGeometry width="160" relative="1" as="geometry">
            <mxPoint x="291.5" y="515" as="sourcePoint" />
            <mxPoint x="361.5" y="310" as="targetPoint" />
          </mxGeometry>
        </mxCell>
        <mxCell id="0mmfi3EhIWckLAOdmHVJ-45" value="" style="html=1;points=[[0,0,0,0,5],[0,1,0,0,-5],[1,0,0,0,5],[1,1,0,0,-5]];perimeter=orthogonalPerimeter;outlineConnect=0;targetShapes=umlLifeline;portConstraint=eastwest;newEdgeStyle={&quot;curved&quot;:0,&quot;rounded&quot;:0};" vertex="1" parent="1">
          <mxGeometry x="291.5" y="380" width="10" height="30" as="geometry" />
        </mxCell>
        <mxCell id="0mmfi3EhIWckLAOdmHVJ-46" value="alt" style="shape=umlFrame;whiteSpace=wrap;html=1;pointerEvents=0;" vertex="1" parent="1">
          <mxGeometry x="56" y="430" width="454" height="120" as="geometry" />
        </mxCell>
        <mxCell id="0mmfi3EhIWckLAOdmHVJ-47" value="" style="endArrow=none;dashed=1;html=1;rounded=0;exitX=0.5;exitY=0;exitDx=0;exitDy=0;" edge="1" parent="1" source="0mmfi3EhIWckLAOdmHVJ-5" target="0mmfi3EhIWckLAOdmHVJ-43">
          <mxGeometry width="50" height="50" relative="1" as="geometry">
            <mxPoint x="290" y="839" as="sourcePoint" />
            <mxPoint x="290" y="600" as="targetPoint" />
            <Array as="points" />
          </mxGeometry>
        </mxCell>
        <mxCell id="0mmfi3EhIWckLAOdmHVJ-48" value="" style="html=1;points=[[0,0,0,0,5],[0,1,0,0,-5],[1,0,0,0,5],[1,1,0,0,-5]];perimeter=orthogonalPerimeter;outlineConnect=0;targetShapes=umlLifeline;portConstraint=eastwest;newEdgeStyle={&quot;curved&quot;:0,&quot;rounded&quot;:0};" vertex="1" parent="1">
          <mxGeometry x="79" y="700" width="10" height="30" as="geometry" />
        </mxCell>
        <mxCell id="0mmfi3EhIWckLAOdmHVJ-49" value="" style="endArrow=classic;html=1;rounded=0;entryX=1;entryY=0;entryDx=0;entryDy=5;entryPerimeter=0;dashed=1;" edge="1" parent="1" target="0mmfi3EhIWckLAOdmHVJ-48">
          <mxGeometry width="50" height="50" relative="1" as="geometry">
            <mxPoint x="291.5" y="706" as="sourcePoint" />
            <mxPoint x="403.5" y="676" as="targetPoint" />
          </mxGeometry>
        </mxCell>
        <mxCell id="0mmfi3EhIWckLAOdmHVJ-50" value="10. Notificación de éxito: Imagen agregada correctamente" style="text;html=1;align=center;verticalAlign=middle;whiteSpace=wrap;rounded=0;" vertex="1" parent="1">
          <mxGeometry x="105.25" y="670" width="170" height="20" as="geometry" />
        </mxCell>
      </root>
    </mxGraphModel>
  </diagram>
</mxfile>
